<mxfile host="Electron" agent="Mozilla/5.0 (Windows NT 10.0; Win64; x64) AppleWebKit/537.36 (KHTML, like Gecko) draw.io/27.0.9 Chrome/134.0.6998.205 Electron/35.4.0 Safari/537.36" version="27.0.9">
  <diagram name="Page-1" id="SwUZunzNn70Wo7e8vY6m">
    <mxGraphModel dx="2877" dy="1048" grid="1" gridSize="10" guides="1" tooltips="1" connect="1" arrows="1" fold="1" page="1" pageScale="1" pageWidth="827" pageHeight="1169" math="0" shadow="0">
      <root>
        <mxCell id="0" />
        <mxCell id="1" parent="0" />
        <mxCell id="Iz8ZcozuDJfdI1wzoyT7-1" value="Utilisateur" style="swimlane;fontStyle=0;childLayout=stackLayout;horizontal=1;startSize=30;fillColor=none;horizontalStack=0;resizeParent=1;resizeParentMax=0;resizeLast=0;collapsible=1;marginBottom=0;whiteSpace=wrap;html=1;" parent="1" vertex="1">
          <mxGeometry x="-30" y="10" width="140" height="380" as="geometry" />
        </mxCell>
        <mxCell id="Iz8ZcozuDJfdI1wzoyT7-2" value="-id: int" style="text;strokeColor=none;fillColor=none;align=left;verticalAlign=top;spacingLeft=4;spacingRight=4;overflow=hidden;rotatable=0;points=[[0,0.5],[1,0.5]];portConstraint=eastwest;whiteSpace=wrap;html=1;" parent="Iz8ZcozuDJfdI1wzoyT7-1" vertex="1">
          <mxGeometry y="30" width="140" height="26" as="geometry" />
        </mxCell>
        <mxCell id="Iz8ZcozuDJfdI1wzoyT7-3" value="-email: String" style="text;strokeColor=none;fillColor=none;align=left;verticalAlign=top;spacingLeft=4;spacingRight=4;overflow=hidden;rotatable=0;points=[[0,0.5],[1,0.5]];portConstraint=eastwest;whiteSpace=wrap;html=1;" parent="Iz8ZcozuDJfdI1wzoyT7-1" vertex="1">
          <mxGeometry y="56" width="140" height="26" as="geometry" />
        </mxCell>
        <mxCell id="Iz8ZcozuDJfdI1wzoyT7-4" value="-motDePasse: String" style="text;strokeColor=none;fillColor=none;align=left;verticalAlign=top;spacingLeft=4;spacingRight=4;overflow=hidden;rotatable=0;points=[[0,0.5],[1,0.5]];portConstraint=eastwest;whiteSpace=wrap;html=1;" parent="Iz8ZcozuDJfdI1wzoyT7-1" vertex="1">
          <mxGeometry y="82" width="140" height="26" as="geometry" />
        </mxCell>
        <mxCell id="Iz8ZcozuDJfdI1wzoyT7-8" value="-nom: String" style="text;strokeColor=none;fillColor=none;align=left;verticalAlign=top;spacingLeft=4;spacingRight=4;overflow=hidden;rotatable=0;points=[[0,0.5],[1,0.5]];portConstraint=eastwest;whiteSpace=wrap;html=1;" parent="Iz8ZcozuDJfdI1wzoyT7-1" vertex="1">
          <mxGeometry y="108" width="140" height="30" as="geometry" />
        </mxCell>
        <mxCell id="Iz8ZcozuDJfdI1wzoyT7-9" value="-prenom: String" style="text;strokeColor=none;fillColor=none;align=left;verticalAlign=top;spacingLeft=4;spacingRight=4;overflow=hidden;rotatable=0;points=[[0,0.5],[1,0.5]];portConstraint=eastwest;whiteSpace=wrap;html=1;" parent="Iz8ZcozuDJfdI1wzoyT7-1" vertex="1">
          <mxGeometry y="138" width="140" height="26" as="geometry" />
        </mxCell>
        <mxCell id="Iz8ZcozuDJfdI1wzoyT7-10" value="-telephone: String" style="text;strokeColor=none;fillColor=none;align=left;verticalAlign=top;spacingLeft=4;spacingRight=4;overflow=hidden;rotatable=0;points=[[0,0.5],[1,0.5]];portConstraint=eastwest;whiteSpace=wrap;html=1;" parent="Iz8ZcozuDJfdI1wzoyT7-1" vertex="1">
          <mxGeometry y="164" width="140" height="26" as="geometry" />
        </mxCell>
        <mxCell id="Iz8ZcozuDJfdI1wzoyT7-11" value="-adresse: String" style="text;strokeColor=none;fillColor=none;align=left;verticalAlign=top;spacingLeft=4;spacingRight=4;overflow=hidden;rotatable=0;points=[[0,0.5],[1,0.5]];portConstraint=eastwest;whiteSpace=wrap;html=1;" parent="Iz8ZcozuDJfdI1wzoyT7-1" vertex="1">
          <mxGeometry y="190" width="140" height="26" as="geometry" />
        </mxCell>
        <mxCell id="Iz8ZcozuDJfdI1wzoyT7-12" value="-dateInscription: Date" style="text;strokeColor=none;fillColor=none;align=left;verticalAlign=top;spacingLeft=4;spacingRight=4;overflow=hidden;rotatable=0;points=[[0,0.5],[1,0.5]];portConstraint=eastwest;whiteSpace=wrap;html=1;" parent="Iz8ZcozuDJfdI1wzoyT7-1" vertex="1">
          <mxGeometry y="216" width="140" height="26" as="geometry" />
        </mxCell>
        <mxCell id="Iz8ZcozuDJfdI1wzoyT7-13" value="-role: String" style="text;strokeColor=none;fillColor=none;align=left;verticalAlign=top;spacingLeft=4;spacingRight=4;overflow=hidden;rotatable=0;points=[[0,0.5],[1,0.5]];portConstraint=eastwest;whiteSpace=wrap;html=1;" parent="Iz8ZcozuDJfdI1wzoyT7-1" vertex="1">
          <mxGeometry y="242" width="140" height="26" as="geometry" />
        </mxCell>
        <mxCell id="Iz8ZcozuDJfdI1wzoyT7-14" value="-actif: boolean" style="text;strokeColor=none;fillColor=none;align=left;verticalAlign=top;spacingLeft=4;spacingRight=4;overflow=hidden;rotatable=0;points=[[0,0.5],[1,0.5]];portConstraint=eastwest;whiteSpace=wrap;html=1;" parent="Iz8ZcozuDJfdI1wzoyT7-1" vertex="1">
          <mxGeometry y="268" width="140" height="26" as="geometry" />
        </mxCell>
        <mxCell id="Iz8ZcozuDJfdI1wzoyT7-15" value="" style="line;strokeWidth=1;fillColor=none;align=left;verticalAlign=middle;spacingTop=-1;spacingLeft=3;spacingRight=3;rotatable=0;labelPosition=right;points=[];portConstraint=eastwest;strokeColor=inherit;" parent="Iz8ZcozuDJfdI1wzoyT7-1" vertex="1">
          <mxGeometry y="294" width="140" height="8" as="geometry" />
        </mxCell>
        <mxCell id="Iz8ZcozuDJfdI1wzoyT7-16" value="+ seConnecter()" style="text;strokeColor=none;fillColor=none;align=left;verticalAlign=top;spacingLeft=4;spacingRight=4;overflow=hidden;rotatable=0;points=[[0,0.5],[1,0.5]];portConstraint=eastwest;whiteSpace=wrap;html=1;" parent="Iz8ZcozuDJfdI1wzoyT7-1" vertex="1">
          <mxGeometry y="302" width="140" height="26" as="geometry" />
        </mxCell>
        <mxCell id="Iz8ZcozuDJfdI1wzoyT7-17" value="+ seDeconnecter()" style="text;strokeColor=none;fillColor=none;align=left;verticalAlign=top;spacingLeft=4;spacingRight=4;overflow=hidden;rotatable=0;points=[[0,0.5],[1,0.5]];portConstraint=eastwest;whiteSpace=wrap;html=1;" parent="Iz8ZcozuDJfdI1wzoyT7-1" vertex="1">
          <mxGeometry y="328" width="140" height="26" as="geometry" />
        </mxCell>
        <mxCell id="Iz8ZcozuDJfdI1wzoyT7-18" value="+ modifierProfil()" style="text;strokeColor=none;fillColor=none;align=left;verticalAlign=top;spacingLeft=4;spacingRight=4;overflow=hidden;rotatable=0;points=[[0,0.5],[1,0.5]];portConstraint=eastwest;whiteSpace=wrap;html=1;" parent="Iz8ZcozuDJfdI1wzoyT7-1" vertex="1">
          <mxGeometry y="354" width="140" height="26" as="geometry" />
        </mxCell>
        <mxCell id="Iz8ZcozuDJfdI1wzoyT7-20" value="Administrateur" style="swimlane;fontStyle=0;childLayout=stackLayout;horizontal=1;startSize=26;fillColor=none;horizontalStack=0;resizeParent=1;resizeParentMax=0;resizeLast=0;collapsible=1;marginBottom=0;whiteSpace=wrap;html=1;" parent="1" vertex="1">
          <mxGeometry x="-360" y="270" width="140" height="138" as="geometry" />
        </mxCell>
        <mxCell id="Iz8ZcozuDJfdI1wzoyT7-24" value="" style="line;strokeWidth=1;fillColor=none;align=left;verticalAlign=middle;spacingTop=-1;spacingLeft=3;spacingRight=3;rotatable=0;labelPosition=right;points=[];portConstraint=eastwest;strokeColor=inherit;" parent="Iz8ZcozuDJfdI1wzoyT7-20" vertex="1">
          <mxGeometry y="26" width="140" height="8" as="geometry" />
        </mxCell>
        <mxCell id="Iz8ZcozuDJfdI1wzoyT7-22" value="+ gererUtilisateur()" style="text;strokeColor=none;fillColor=none;align=left;verticalAlign=top;spacingLeft=4;spacingRight=4;overflow=hidden;rotatable=0;points=[[0,0.5],[1,0.5]];portConstraint=eastwest;whiteSpace=wrap;html=1;" parent="Iz8ZcozuDJfdI1wzoyT7-20" vertex="1">
          <mxGeometry y="34" width="140" height="26" as="geometry" />
        </mxCell>
        <mxCell id="Iz8ZcozuDJfdI1wzoyT7-23" value="+ validerVendeur" style="text;strokeColor=none;fillColor=none;align=left;verticalAlign=top;spacingLeft=4;spacingRight=4;overflow=hidden;rotatable=0;points=[[0,0.5],[1,0.5]];portConstraint=eastwest;whiteSpace=wrap;html=1;" parent="Iz8ZcozuDJfdI1wzoyT7-20" vertex="1">
          <mxGeometry y="60" width="140" height="26" as="geometry" />
        </mxCell>
        <mxCell id="Iz8ZcozuDJfdI1wzoyT7-30" value="+ item: attribute" style="text;strokeColor=none;fillColor=none;align=left;verticalAlign=top;spacingLeft=4;spacingRight=4;overflow=hidden;rotatable=0;points=[[0,0.5],[1,0.5]];portConstraint=eastwest;whiteSpace=wrap;html=1;" parent="Iz8ZcozuDJfdI1wzoyT7-20" vertex="1">
          <mxGeometry y="86" width="140" height="26" as="geometry" />
        </mxCell>
        <mxCell id="Iz8ZcozuDJfdI1wzoyT7-25" value="+ consulterStatistique()" style="text;strokeColor=none;fillColor=none;align=left;verticalAlign=top;spacingLeft=4;spacingRight=4;overflow=hidden;rotatable=0;points=[[0,0.5],[1,0.5]];portConstraint=eastwest;whiteSpace=wrap;html=1;" parent="Iz8ZcozuDJfdI1wzoyT7-20" vertex="1">
          <mxGeometry y="112" width="140" height="26" as="geometry" />
        </mxCell>
        <mxCell id="Iz8ZcozuDJfdI1wzoyT7-26" value="Acheteur" style="swimlane;fontStyle=0;childLayout=stackLayout;horizontal=1;startSize=26;fillColor=none;horizontalStack=0;resizeParent=1;resizeParentMax=0;resizeLast=0;collapsible=1;marginBottom=0;whiteSpace=wrap;html=1;" parent="1" vertex="1">
          <mxGeometry x="360" y="110" width="200" height="238" as="geometry" />
        </mxCell>
        <mxCell id="Iz8ZcozuDJfdI1wzoyT7-27" value="-id: int" style="text;strokeColor=none;fillColor=none;align=left;verticalAlign=top;spacingLeft=4;spacingRight=4;overflow=hidden;rotatable=0;points=[[0,0.5],[1,0.5]];portConstraint=eastwest;whiteSpace=wrap;html=1;" parent="Iz8ZcozuDJfdI1wzoyT7-26" vertex="1">
          <mxGeometry y="26" width="200" height="26" as="geometry" />
        </mxCell>
        <mxCell id="Iz8ZcozuDJfdI1wzoyT7-28" value="-adresseLivraison: String" style="text;strokeColor=none;fillColor=none;align=left;verticalAlign=top;spacingLeft=4;spacingRight=4;overflow=hidden;rotatable=0;points=[[0,0.5],[1,0.5]];portConstraint=eastwest;whiteSpace=wrap;html=1;" parent="Iz8ZcozuDJfdI1wzoyT7-26" vertex="1">
          <mxGeometry y="52" width="200" height="38" as="geometry" />
        </mxCell>
        <mxCell id="Iz8ZcozuDJfdI1wzoyT7-31" value="" style="line;strokeWidth=1;fillColor=none;align=left;verticalAlign=middle;spacingTop=-1;spacingLeft=3;spacingRight=3;rotatable=0;labelPosition=right;points=[];portConstraint=eastwest;strokeColor=inherit;" parent="Iz8ZcozuDJfdI1wzoyT7-26" vertex="1">
          <mxGeometry y="90" width="200" height="8" as="geometry" />
        </mxCell>
        <mxCell id="Iz8ZcozuDJfdI1wzoyT7-29" value="+ consulteHistoriqueCommandes()" style="text;strokeColor=none;fillColor=none;align=left;verticalAlign=top;spacingLeft=4;spacingRight=4;overflow=hidden;rotatable=0;points=[[0,0.5],[1,0.5]];portConstraint=eastwest;whiteSpace=wrap;html=1;" parent="Iz8ZcozuDJfdI1wzoyT7-26" vertex="1">
          <mxGeometry y="98" width="200" height="62" as="geometry" />
        </mxCell>
        <mxCell id="Iz8ZcozuDJfdI1wzoyT7-32" value="+ ajouterAuPanier()" style="text;strokeColor=none;fillColor=none;align=left;verticalAlign=top;spacingLeft=4;spacingRight=4;overflow=hidden;rotatable=0;points=[[0,0.5],[1,0.5]];portConstraint=eastwest;whiteSpace=wrap;html=1;" parent="Iz8ZcozuDJfdI1wzoyT7-26" vertex="1">
          <mxGeometry y="160" width="200" height="26" as="geometry" />
        </mxCell>
        <mxCell id="Iz8ZcozuDJfdI1wzoyT7-33" value="+ passerCommande()" style="text;strokeColor=none;fillColor=none;align=left;verticalAlign=top;spacingLeft=4;spacingRight=4;overflow=hidden;rotatable=0;points=[[0,0.5],[1,0.5]];portConstraint=eastwest;whiteSpace=wrap;html=1;" parent="Iz8ZcozuDJfdI1wzoyT7-26" vertex="1">
          <mxGeometry y="186" width="200" height="26" as="geometry" />
        </mxCell>
        <mxCell id="Iz8ZcozuDJfdI1wzoyT7-34" value="+ donnerAvis()" style="text;strokeColor=none;fillColor=none;align=left;verticalAlign=top;spacingLeft=4;spacingRight=4;overflow=hidden;rotatable=0;points=[[0,0.5],[1,0.5]];portConstraint=eastwest;whiteSpace=wrap;html=1;" parent="Iz8ZcozuDJfdI1wzoyT7-26" vertex="1">
          <mxGeometry y="212" width="200" height="26" as="geometry" />
        </mxCell>
        <mxCell id="Iz8ZcozuDJfdI1wzoyT7-35" value="Vendeur" style="swimlane;fontStyle=0;childLayout=stackLayout;horizontal=1;startSize=26;fillColor=none;horizontalStack=0;resizeParent=1;resizeParentMax=0;resizeLast=0;collapsible=1;marginBottom=0;whiteSpace=wrap;html=1;" parent="1" vertex="1">
          <mxGeometry x="-560" y="464" width="140" height="294" as="geometry" />
        </mxCell>
        <mxCell id="Iz8ZcozuDJfdI1wzoyT7-36" value="-id:int" style="text;strokeColor=none;fillColor=none;align=left;verticalAlign=top;spacingLeft=4;spacingRight=4;overflow=hidden;rotatable=0;points=[[0,0.5],[1,0.5]];portConstraint=eastwest;whiteSpace=wrap;html=1;" parent="Iz8ZcozuDJfdI1wzoyT7-35" vertex="1">
          <mxGeometry y="26" width="140" height="26" as="geometry" />
        </mxCell>
        <mxCell id="Iz8ZcozuDJfdI1wzoyT7-37" value="-nomBoutique: String" style="text;strokeColor=none;fillColor=none;align=left;verticalAlign=top;spacingLeft=4;spacingRight=4;overflow=hidden;rotatable=0;points=[[0,0.5],[1,0.5]];portConstraint=eastwest;whiteSpace=wrap;html=1;" parent="Iz8ZcozuDJfdI1wzoyT7-35" vertex="1">
          <mxGeometry y="52" width="140" height="26" as="geometry" />
        </mxCell>
        <mxCell id="Iz8ZcozuDJfdI1wzoyT7-38" value="-description: String" style="text;strokeColor=none;fillColor=none;align=left;verticalAlign=top;spacingLeft=4;spacingRight=4;overflow=hidden;rotatable=0;points=[[0,0.5],[1,0.5]];portConstraint=eastwest;whiteSpace=wrap;html=1;" parent="Iz8ZcozuDJfdI1wzoyT7-35" vertex="1">
          <mxGeometry y="78" width="140" height="26" as="geometry" />
        </mxCell>
        <mxCell id="Iz8ZcozuDJfdI1wzoyT7-39" value="-verifie: Boolean" style="text;strokeColor=none;fillColor=none;align=left;verticalAlign=top;spacingLeft=4;spacingRight=4;overflow=hidden;rotatable=0;points=[[0,0.5],[1,0.5]];portConstraint=eastwest;whiteSpace=wrap;html=1;" parent="Iz8ZcozuDJfdI1wzoyT7-35" vertex="1">
          <mxGeometry y="104" width="140" height="26" as="geometry" />
        </mxCell>
        <mxCell id="Iz8ZcozuDJfdI1wzoyT7-40" value="-dateVerification: Date" style="text;strokeColor=none;fillColor=none;align=left;verticalAlign=top;spacingLeft=4;spacingRight=4;overflow=hidden;rotatable=0;points=[[0,0.5],[1,0.5]];portConstraint=eastwest;whiteSpace=wrap;html=1;" parent="Iz8ZcozuDJfdI1wzoyT7-35" vertex="1">
          <mxGeometry y="130" width="140" height="26" as="geometry" />
        </mxCell>
        <mxCell id="Iz8ZcozuDJfdI1wzoyT7-41" value="" style="line;strokeWidth=1;fillColor=none;align=left;verticalAlign=middle;spacingTop=-1;spacingLeft=3;spacingRight=3;rotatable=0;labelPosition=right;points=[];portConstraint=eastwest;strokeColor=inherit;" parent="Iz8ZcozuDJfdI1wzoyT7-35" vertex="1">
          <mxGeometry y="156" width="140" height="8" as="geometry" />
        </mxCell>
        <mxCell id="Iz8ZcozuDJfdI1wzoyT7-42" value="+ ajouterProduit()" style="text;strokeColor=none;fillColor=none;align=left;verticalAlign=top;spacingLeft=4;spacingRight=4;overflow=hidden;rotatable=0;points=[[0,0.5],[1,0.5]];portConstraint=eastwest;whiteSpace=wrap;html=1;" parent="Iz8ZcozuDJfdI1wzoyT7-35" vertex="1">
          <mxGeometry y="164" width="140" height="26" as="geometry" />
        </mxCell>
        <mxCell id="Iz8ZcozuDJfdI1wzoyT7-43" value="+ modifierProduit()" style="text;strokeColor=none;fillColor=none;align=left;verticalAlign=top;spacingLeft=4;spacingRight=4;overflow=hidden;rotatable=0;points=[[0,0.5],[1,0.5]];portConstraint=eastwest;whiteSpace=wrap;html=1;" parent="Iz8ZcozuDJfdI1wzoyT7-35" vertex="1">
          <mxGeometry y="190" width="140" height="26" as="geometry" />
        </mxCell>
        <mxCell id="Iz8ZcozuDJfdI1wzoyT7-44" value="+supprimerProduit()" style="text;strokeColor=none;fillColor=none;align=left;verticalAlign=top;spacingLeft=4;spacingRight=4;overflow=hidden;rotatable=0;points=[[0,0.5],[1,0.5]];portConstraint=eastwest;whiteSpace=wrap;html=1;" parent="Iz8ZcozuDJfdI1wzoyT7-35" vertex="1">
          <mxGeometry y="216" width="140" height="26" as="geometry" />
        </mxCell>
        <mxCell id="Iz8ZcozuDJfdI1wzoyT7-45" value="+ gererStock()" style="text;strokeColor=none;fillColor=none;align=left;verticalAlign=top;spacingLeft=4;spacingRight=4;overflow=hidden;rotatable=0;points=[[0,0.5],[1,0.5]];portConstraint=eastwest;whiteSpace=wrap;html=1;" parent="Iz8ZcozuDJfdI1wzoyT7-35" vertex="1">
          <mxGeometry y="242" width="140" height="26" as="geometry" />
        </mxCell>
        <mxCell id="Iz8ZcozuDJfdI1wzoyT7-46" value="+ consulterVentes()" style="text;strokeColor=none;fillColor=none;align=left;verticalAlign=top;spacingLeft=4;spacingRight=4;overflow=hidden;rotatable=0;points=[[0,0.5],[1,0.5]];portConstraint=eastwest;whiteSpace=wrap;html=1;" parent="Iz8ZcozuDJfdI1wzoyT7-35" vertex="1">
          <mxGeometry y="268" width="140" height="26" as="geometry" />
        </mxCell>
        <mxCell id="Iz8ZcozuDJfdI1wzoyT7-47" value="Panier" style="swimlane;fontStyle=0;childLayout=stackLayout;horizontal=1;startSize=26;fillColor=none;horizontalStack=0;resizeParent=1;resizeParentMax=0;resizeLast=0;collapsible=1;marginBottom=0;whiteSpace=wrap;html=1;" parent="1" vertex="1">
          <mxGeometry x="-30" y="464" width="140" height="242" as="geometry" />
        </mxCell>
        <mxCell id="Iz8ZcozuDJfdI1wzoyT7-48" value="-id: int" style="text;strokeColor=none;fillColor=none;align=left;verticalAlign=top;spacingLeft=4;spacingRight=4;overflow=hidden;rotatable=0;points=[[0,0.5],[1,0.5]];portConstraint=eastwest;whiteSpace=wrap;html=1;" parent="Iz8ZcozuDJfdI1wzoyT7-47" vertex="1">
          <mxGeometry y="26" width="140" height="26" as="geometry" />
        </mxCell>
        <mxCell id="Iz8ZcozuDJfdI1wzoyT7-49" value="-dateCreation: Date" style="text;strokeColor=none;fillColor=none;align=left;verticalAlign=top;spacingLeft=4;spacingRight=4;overflow=hidden;rotatable=0;points=[[0,0.5],[1,0.5]];portConstraint=eastwest;whiteSpace=wrap;html=1;" parent="Iz8ZcozuDJfdI1wzoyT7-47" vertex="1">
          <mxGeometry y="52" width="140" height="26" as="geometry" />
        </mxCell>
        <mxCell id="Iz8ZcozuDJfdI1wzoyT7-50" value="dateModification: Date" style="text;strokeColor=none;fillColor=none;align=left;verticalAlign=top;spacingLeft=4;spacingRight=4;overflow=hidden;rotatable=0;points=[[0,0.5],[1,0.5]];portConstraint=eastwest;whiteSpace=wrap;html=1;" parent="Iz8ZcozuDJfdI1wzoyT7-47" vertex="1">
          <mxGeometry y="78" width="140" height="26" as="geometry" />
        </mxCell>
        <mxCell id="Iz8ZcozuDJfdI1wzoyT7-51" value="" style="line;strokeWidth=1;fillColor=none;align=left;verticalAlign=middle;spacingTop=-1;spacingLeft=3;spacingRight=3;rotatable=0;labelPosition=right;points=[];portConstraint=eastwest;strokeColor=inherit;" parent="Iz8ZcozuDJfdI1wzoyT7-47" vertex="1">
          <mxGeometry y="104" width="140" height="8" as="geometry" />
        </mxCell>
        <mxCell id="Iz8ZcozuDJfdI1wzoyT7-52" value="+ ajouterProduit()" style="text;strokeColor=none;fillColor=none;align=left;verticalAlign=top;spacingLeft=4;spacingRight=4;overflow=hidden;rotatable=0;points=[[0,0.5],[1,0.5]];portConstraint=eastwest;whiteSpace=wrap;html=1;" parent="Iz8ZcozuDJfdI1wzoyT7-47" vertex="1">
          <mxGeometry y="112" width="140" height="26" as="geometry" />
        </mxCell>
        <mxCell id="Iz8ZcozuDJfdI1wzoyT7-53" value="+modifierQuantite()" style="text;strokeColor=none;fillColor=none;align=left;verticalAlign=top;spacingLeft=4;spacingRight=4;overflow=hidden;rotatable=0;points=[[0,0.5],[1,0.5]];portConstraint=eastwest;whiteSpace=wrap;html=1;" parent="Iz8ZcozuDJfdI1wzoyT7-47" vertex="1">
          <mxGeometry y="138" width="140" height="26" as="geometry" />
        </mxCell>
        <mxCell id="Iz8ZcozuDJfdI1wzoyT7-54" value="+ supprimerProduit()" style="text;strokeColor=none;fillColor=none;align=left;verticalAlign=top;spacingLeft=4;spacingRight=4;overflow=hidden;rotatable=0;points=[[0,0.5],[1,0.5]];portConstraint=eastwest;whiteSpace=wrap;html=1;" parent="Iz8ZcozuDJfdI1wzoyT7-47" vertex="1">
          <mxGeometry y="164" width="140" height="26" as="geometry" />
        </mxCell>
        <mxCell id="Iz8ZcozuDJfdI1wzoyT7-55" value="+ calculerTotal()" style="text;strokeColor=none;fillColor=none;align=left;verticalAlign=top;spacingLeft=4;spacingRight=4;overflow=hidden;rotatable=0;points=[[0,0.5],[1,0.5]];portConstraint=eastwest;whiteSpace=wrap;html=1;" parent="Iz8ZcozuDJfdI1wzoyT7-47" vertex="1">
          <mxGeometry y="190" width="140" height="26" as="geometry" />
        </mxCell>
        <mxCell id="Iz8ZcozuDJfdI1wzoyT7-56" value="+ valider()" style="text;strokeColor=none;fillColor=none;align=left;verticalAlign=top;spacingLeft=4;spacingRight=4;overflow=hidden;rotatable=0;points=[[0,0.5],[1,0.5]];portConstraint=eastwest;whiteSpace=wrap;html=1;" parent="Iz8ZcozuDJfdI1wzoyT7-47" vertex="1">
          <mxGeometry y="216" width="140" height="26" as="geometry" />
        </mxCell>
        <mxCell id="Iz8ZcozuDJfdI1wzoyT7-57" value="Commande" style="swimlane;fontStyle=0;childLayout=stackLayout;horizontal=1;startSize=26;fillColor=none;horizontalStack=0;resizeParent=1;resizeParentMax=0;resizeLast=0;collapsible=1;marginBottom=0;whiteSpace=wrap;html=1;" parent="1" vertex="1">
          <mxGeometry x="480" y="430" width="150" height="220" as="geometry" />
        </mxCell>
        <mxCell id="Iz8ZcozuDJfdI1wzoyT7-58" value="-id: int" style="text;strokeColor=none;fillColor=none;align=left;verticalAlign=top;spacingLeft=4;spacingRight=4;overflow=hidden;rotatable=0;points=[[0,0.5],[1,0.5]];portConstraint=eastwest;whiteSpace=wrap;html=1;" parent="Iz8ZcozuDJfdI1wzoyT7-57" vertex="1">
          <mxGeometry y="26" width="150" height="26" as="geometry" />
        </mxCell>
        <mxCell id="Iz8ZcozuDJfdI1wzoyT7-59" value="-dateCommande: Date" style="text;strokeColor=none;fillColor=none;align=left;verticalAlign=top;spacingLeft=4;spacingRight=4;overflow=hidden;rotatable=0;points=[[0,0.5],[1,0.5]];portConstraint=eastwest;whiteSpace=wrap;html=1;" parent="Iz8ZcozuDJfdI1wzoyT7-57" vertex="1">
          <mxGeometry y="52" width="150" height="26" as="geometry" />
        </mxCell>
        <mxCell id="Iz8ZcozuDJfdI1wzoyT7-60" value="-statut: String" style="text;strokeColor=none;fillColor=none;align=left;verticalAlign=top;spacingLeft=4;spacingRight=4;overflow=hidden;rotatable=0;points=[[0,0.5],[1,0.5]];portConstraint=eastwest;whiteSpace=wrap;html=1;" parent="Iz8ZcozuDJfdI1wzoyT7-57" vertex="1">
          <mxGeometry y="78" width="150" height="26" as="geometry" />
        </mxCell>
        <mxCell id="Iz8ZcozuDJfdI1wzoyT7-61" value="-montantTotal: float" style="text;strokeColor=none;fillColor=none;align=left;verticalAlign=top;spacingLeft=4;spacingRight=4;overflow=hidden;rotatable=0;points=[[0,0.5],[1,0.5]];portConstraint=eastwest;whiteSpace=wrap;html=1;" parent="Iz8ZcozuDJfdI1wzoyT7-57" vertex="1">
          <mxGeometry y="104" width="150" height="26" as="geometry" />
        </mxCell>
        <mxCell id="Iz8ZcozuDJfdI1wzoyT7-62" value="-adresseLivraison: String" style="text;strokeColor=none;fillColor=none;align=left;verticalAlign=top;spacingLeft=4;spacingRight=4;overflow=hidden;rotatable=0;points=[[0,0.5],[1,0.5]];portConstraint=eastwest;whiteSpace=wrap;html=1;" parent="Iz8ZcozuDJfdI1wzoyT7-57" vertex="1">
          <mxGeometry y="130" width="150" height="30" as="geometry" />
        </mxCell>
        <mxCell id="Iz8ZcozuDJfdI1wzoyT7-63" value="" style="line;strokeWidth=1;fillColor=none;align=left;verticalAlign=middle;spacingTop=-1;spacingLeft=3;spacingRight=3;rotatable=0;labelPosition=right;points=[];portConstraint=eastwest;strokeColor=inherit;" parent="Iz8ZcozuDJfdI1wzoyT7-57" vertex="1">
          <mxGeometry y="160" width="150" height="8" as="geometry" />
        </mxCell>
        <mxCell id="Iz8ZcozuDJfdI1wzoyT7-64" value="+calculerTotal()" style="text;strokeColor=none;fillColor=none;align=left;verticalAlign=top;spacingLeft=4;spacingRight=4;overflow=hidden;rotatable=0;points=[[0,0.5],[1,0.5]];portConstraint=eastwest;whiteSpace=wrap;html=1;" parent="Iz8ZcozuDJfdI1wzoyT7-57" vertex="1">
          <mxGeometry y="168" width="150" height="26" as="geometry" />
        </mxCell>
        <mxCell id="Iz8ZcozuDJfdI1wzoyT7-65" value="+ changerStatut()" style="text;strokeColor=none;fillColor=none;align=left;verticalAlign=top;spacingLeft=4;spacingRight=4;overflow=hidden;rotatable=0;points=[[0,0.5],[1,0.5]];portConstraint=eastwest;whiteSpace=wrap;html=1;" parent="Iz8ZcozuDJfdI1wzoyT7-57" vertex="1">
          <mxGeometry y="194" width="150" height="26" as="geometry" />
        </mxCell>
        <mxCell id="Iz8ZcozuDJfdI1wzoyT7-66" value="Categorie" style="swimlane;fontStyle=0;childLayout=stackLayout;horizontal=1;startSize=26;fillColor=none;horizontalStack=0;resizeParent=1;resizeParentMax=0;resizeLast=0;collapsible=1;marginBottom=0;whiteSpace=wrap;html=1;" parent="1" vertex="1">
          <mxGeometry x="-370" y="786" width="140" height="164" as="geometry" />
        </mxCell>
        <mxCell id="Iz8ZcozuDJfdI1wzoyT7-67" value="-id: int" style="text;strokeColor=none;fillColor=none;align=left;verticalAlign=top;spacingLeft=4;spacingRight=4;overflow=hidden;rotatable=0;points=[[0,0.5],[1,0.5]];portConstraint=eastwest;whiteSpace=wrap;html=1;" parent="Iz8ZcozuDJfdI1wzoyT7-66" vertex="1">
          <mxGeometry y="26" width="140" height="26" as="geometry" />
        </mxCell>
        <mxCell id="Iz8ZcozuDJfdI1wzoyT7-68" value="-nom: String" style="text;strokeColor=none;fillColor=none;align=left;verticalAlign=top;spacingLeft=4;spacingRight=4;overflow=hidden;rotatable=0;points=[[0,0.5],[1,0.5]];portConstraint=eastwest;whiteSpace=wrap;html=1;" parent="Iz8ZcozuDJfdI1wzoyT7-66" vertex="1">
          <mxGeometry y="52" width="140" height="26" as="geometry" />
        </mxCell>
        <mxCell id="Iz8ZcozuDJfdI1wzoyT7-69" value="-description: String" style="text;strokeColor=none;fillColor=none;align=left;verticalAlign=top;spacingLeft=4;spacingRight=4;overflow=hidden;rotatable=0;points=[[0,0.5],[1,0.5]];portConstraint=eastwest;whiteSpace=wrap;html=1;" parent="Iz8ZcozuDJfdI1wzoyT7-66" vertex="1">
          <mxGeometry y="78" width="140" height="26" as="geometry" />
        </mxCell>
        <mxCell id="Iz8ZcozuDJfdI1wzoyT7-70" value="" style="line;strokeWidth=1;fillColor=none;align=left;verticalAlign=middle;spacingTop=-1;spacingLeft=3;spacingRight=3;rotatable=0;labelPosition=right;points=[];portConstraint=eastwest;strokeColor=inherit;" parent="Iz8ZcozuDJfdI1wzoyT7-66" vertex="1">
          <mxGeometry y="104" width="140" height="8" as="geometry" />
        </mxCell>
        <mxCell id="Iz8ZcozuDJfdI1wzoyT7-71" value="+ ajouterProduit()" style="text;strokeColor=none;fillColor=none;align=left;verticalAlign=top;spacingLeft=4;spacingRight=4;overflow=hidden;rotatable=0;points=[[0,0.5],[1,0.5]];portConstraint=eastwest;whiteSpace=wrap;html=1;" parent="Iz8ZcozuDJfdI1wzoyT7-66" vertex="1">
          <mxGeometry y="112" width="140" height="26" as="geometry" />
        </mxCell>
        <mxCell id="Iz8ZcozuDJfdI1wzoyT7-72" value="+ listerProduit()" style="text;strokeColor=none;fillColor=none;align=left;verticalAlign=top;spacingLeft=4;spacingRight=4;overflow=hidden;rotatable=0;points=[[0,0.5],[1,0.5]];portConstraint=eastwest;whiteSpace=wrap;html=1;" parent="Iz8ZcozuDJfdI1wzoyT7-66" vertex="1">
          <mxGeometry y="138" width="140" height="26" as="geometry" />
        </mxCell>
        <mxCell id="Iz8ZcozuDJfdI1wzoyT7-73" value="LigneCommande" style="swimlane;fontStyle=0;childLayout=stackLayout;horizontal=1;startSize=26;fillColor=none;horizontalStack=0;resizeParent=1;resizeParentMax=0;resizeLast=0;collapsible=1;marginBottom=0;whiteSpace=wrap;html=1;" parent="1" vertex="1">
          <mxGeometry y="786" width="140" height="112" as="geometry" />
        </mxCell>
        <mxCell id="Iz8ZcozuDJfdI1wzoyT7-74" value="-id: int" style="text;strokeColor=none;fillColor=none;align=left;verticalAlign=top;spacingLeft=4;spacingRight=4;overflow=hidden;rotatable=0;points=[[0,0.5],[1,0.5]];portConstraint=eastwest;whiteSpace=wrap;html=1;" parent="Iz8ZcozuDJfdI1wzoyT7-73" vertex="1">
          <mxGeometry y="26" width="140" height="26" as="geometry" />
        </mxCell>
        <mxCell id="Iz8ZcozuDJfdI1wzoyT7-75" value="-quantite: int&amp;nbsp;" style="text;strokeColor=none;fillColor=none;align=left;verticalAlign=top;spacingLeft=4;spacingRight=4;overflow=hidden;rotatable=0;points=[[0,0.5],[1,0.5]];portConstraint=eastwest;whiteSpace=wrap;html=1;" parent="Iz8ZcozuDJfdI1wzoyT7-73" vertex="1">
          <mxGeometry y="52" width="140" height="26" as="geometry" />
        </mxCell>
        <mxCell id="Iz8ZcozuDJfdI1wzoyT7-76" value="-prixUnitaire: float" style="text;strokeColor=none;fillColor=none;align=left;verticalAlign=top;spacingLeft=4;spacingRight=4;overflow=hidden;rotatable=0;points=[[0,0.5],[1,0.5]];portConstraint=eastwest;whiteSpace=wrap;html=1;" parent="Iz8ZcozuDJfdI1wzoyT7-73" vertex="1">
          <mxGeometry y="78" width="140" height="26" as="geometry" />
        </mxCell>
        <mxCell id="Iz8ZcozuDJfdI1wzoyT7-77" value="" style="line;strokeWidth=1;fillColor=none;align=left;verticalAlign=middle;spacingTop=-1;spacingLeft=3;spacingRight=3;rotatable=0;labelPosition=right;points=[];portConstraint=eastwest;strokeColor=inherit;" parent="Iz8ZcozuDJfdI1wzoyT7-73" vertex="1">
          <mxGeometry y="104" width="140" height="8" as="geometry" />
        </mxCell>
        <mxCell id="Iz8ZcozuDJfdI1wzoyT7-78" value="Paiement" style="swimlane;fontStyle=0;childLayout=stackLayout;horizontal=1;startSize=26;fillColor=none;horizontalStack=0;resizeParent=1;resizeParentMax=0;resizeLast=0;collapsible=1;marginBottom=0;whiteSpace=wrap;html=1;" parent="1" vertex="1">
          <mxGeometry x="410" y="724" width="150" height="220" as="geometry" />
        </mxCell>
        <mxCell id="Iz8ZcozuDJfdI1wzoyT7-79" value="-id: int" style="text;strokeColor=none;fillColor=none;align=left;verticalAlign=top;spacingLeft=4;spacingRight=4;overflow=hidden;rotatable=0;points=[[0,0.5],[1,0.5]];portConstraint=eastwest;whiteSpace=wrap;html=1;" parent="Iz8ZcozuDJfdI1wzoyT7-78" vertex="1">
          <mxGeometry y="26" width="150" height="26" as="geometry" />
        </mxCell>
        <mxCell id="Iz8ZcozuDJfdI1wzoyT7-80" value="-dateCommande: Date" style="text;strokeColor=none;fillColor=none;align=left;verticalAlign=top;spacingLeft=4;spacingRight=4;overflow=hidden;rotatable=0;points=[[0,0.5],[1,0.5]];portConstraint=eastwest;whiteSpace=wrap;html=1;" parent="Iz8ZcozuDJfdI1wzoyT7-78" vertex="1">
          <mxGeometry y="52" width="150" height="26" as="geometry" />
        </mxCell>
        <mxCell id="Iz8ZcozuDJfdI1wzoyT7-81" value="-statut: String" style="text;strokeColor=none;fillColor=none;align=left;verticalAlign=top;spacingLeft=4;spacingRight=4;overflow=hidden;rotatable=0;points=[[0,0.5],[1,0.5]];portConstraint=eastwest;whiteSpace=wrap;html=1;" parent="Iz8ZcozuDJfdI1wzoyT7-78" vertex="1">
          <mxGeometry y="78" width="150" height="26" as="geometry" />
        </mxCell>
        <mxCell id="Iz8ZcozuDJfdI1wzoyT7-82" value="-montantTotal: float" style="text;strokeColor=none;fillColor=none;align=left;verticalAlign=top;spacingLeft=4;spacingRight=4;overflow=hidden;rotatable=0;points=[[0,0.5],[1,0.5]];portConstraint=eastwest;whiteSpace=wrap;html=1;" parent="Iz8ZcozuDJfdI1wzoyT7-78" vertex="1">
          <mxGeometry y="104" width="150" height="26" as="geometry" />
        </mxCell>
        <mxCell id="Iz8ZcozuDJfdI1wzoyT7-83" value="-adresseLivraison: String" style="text;strokeColor=none;fillColor=none;align=left;verticalAlign=top;spacingLeft=4;spacingRight=4;overflow=hidden;rotatable=0;points=[[0,0.5],[1,0.5]];portConstraint=eastwest;whiteSpace=wrap;html=1;" parent="Iz8ZcozuDJfdI1wzoyT7-78" vertex="1">
          <mxGeometry y="130" width="150" height="30" as="geometry" />
        </mxCell>
        <mxCell id="Iz8ZcozuDJfdI1wzoyT7-84" value="" style="line;strokeWidth=1;fillColor=none;align=left;verticalAlign=middle;spacingTop=-1;spacingLeft=3;spacingRight=3;rotatable=0;labelPosition=right;points=[];portConstraint=eastwest;strokeColor=inherit;" parent="Iz8ZcozuDJfdI1wzoyT7-78" vertex="1">
          <mxGeometry y="160" width="150" height="8" as="geometry" />
        </mxCell>
        <mxCell id="Iz8ZcozuDJfdI1wzoyT7-85" value="+ calculerTotal()" style="text;strokeColor=none;fillColor=none;align=left;verticalAlign=top;spacingLeft=4;spacingRight=4;overflow=hidden;rotatable=0;points=[[0,0.5],[1,0.5]];portConstraint=eastwest;whiteSpace=wrap;html=1;" parent="Iz8ZcozuDJfdI1wzoyT7-78" vertex="1">
          <mxGeometry y="168" width="150" height="26" as="geometry" />
        </mxCell>
        <mxCell id="Iz8ZcozuDJfdI1wzoyT7-86" value="+ changerStatut()" style="text;strokeColor=none;fillColor=none;align=left;verticalAlign=top;spacingLeft=4;spacingRight=4;overflow=hidden;rotatable=0;points=[[0,0.5],[1,0.5]];portConstraint=eastwest;whiteSpace=wrap;html=1;" parent="Iz8ZcozuDJfdI1wzoyT7-78" vertex="1">
          <mxGeometry y="194" width="150" height="26" as="geometry" />
        </mxCell>
        <mxCell id="Iz8ZcozuDJfdI1wzoyT7-87" value="ImageProduit" style="swimlane;fontStyle=0;childLayout=stackLayout;horizontal=1;startSize=26;fillColor=none;horizontalStack=0;resizeParent=1;resizeParentMax=0;resizeLast=0;collapsible=1;marginBottom=0;whiteSpace=wrap;html=1;" parent="1" vertex="1">
          <mxGeometry x="170" y="786" width="140" height="112" as="geometry" />
        </mxCell>
        <mxCell id="Iz8ZcozuDJfdI1wzoyT7-88" value="-id: int" style="text;strokeColor=none;fillColor=none;align=left;verticalAlign=top;spacingLeft=4;spacingRight=4;overflow=hidden;rotatable=0;points=[[0,0.5],[1,0.5]];portConstraint=eastwest;whiteSpace=wrap;html=1;" parent="Iz8ZcozuDJfdI1wzoyT7-87" vertex="1">
          <mxGeometry y="26" width="140" height="26" as="geometry" />
        </mxCell>
        <mxCell id="Iz8ZcozuDJfdI1wzoyT7-89" value="-url: String" style="text;strokeColor=none;fillColor=none;align=left;verticalAlign=top;spacingLeft=4;spacingRight=4;overflow=hidden;rotatable=0;points=[[0,0.5],[1,0.5]];portConstraint=eastwest;whiteSpace=wrap;html=1;" parent="Iz8ZcozuDJfdI1wzoyT7-87" vertex="1">
          <mxGeometry y="52" width="140" height="26" as="geometry" />
        </mxCell>
        <mxCell id="Iz8ZcozuDJfdI1wzoyT7-90" value="-principale: boolean" style="text;strokeColor=none;fillColor=none;align=left;verticalAlign=top;spacingLeft=4;spacingRight=4;overflow=hidden;rotatable=0;points=[[0,0.5],[1,0.5]];portConstraint=eastwest;whiteSpace=wrap;html=1;" parent="Iz8ZcozuDJfdI1wzoyT7-87" vertex="1">
          <mxGeometry y="78" width="140" height="26" as="geometry" />
        </mxCell>
        <mxCell id="Iz8ZcozuDJfdI1wzoyT7-91" value="" style="line;strokeWidth=1;fillColor=none;align=left;verticalAlign=middle;spacingTop=-1;spacingLeft=3;spacingRight=3;rotatable=0;labelPosition=right;points=[];portConstraint=eastwest;strokeColor=inherit;" parent="Iz8ZcozuDJfdI1wzoyT7-87" vertex="1">
          <mxGeometry y="104" width="140" height="8" as="geometry" />
        </mxCell>
        <mxCell id="Iz8ZcozuDJfdI1wzoyT7-92" value="Avis" style="swimlane;fontStyle=0;childLayout=stackLayout;horizontal=1;startSize=26;fillColor=none;horizontalStack=0;resizeParent=1;resizeParentMax=0;resizeLast=0;collapsible=1;marginBottom=0;whiteSpace=wrap;html=1;" parent="1" vertex="1">
          <mxGeometry x="687" y="739" width="140" height="190" as="geometry" />
        </mxCell>
        <mxCell id="Iz8ZcozuDJfdI1wzoyT7-93" value="-id: int" style="text;strokeColor=none;fillColor=none;align=left;verticalAlign=top;spacingLeft=4;spacingRight=4;overflow=hidden;rotatable=0;points=[[0,0.5],[1,0.5]];portConstraint=eastwest;whiteSpace=wrap;html=1;" parent="Iz8ZcozuDJfdI1wzoyT7-92" vertex="1">
          <mxGeometry y="26" width="140" height="26" as="geometry" />
        </mxCell>
        <mxCell id="Iz8ZcozuDJfdI1wzoyT7-94" value="-note: int" style="text;strokeColor=none;fillColor=none;align=left;verticalAlign=top;spacingLeft=4;spacingRight=4;overflow=hidden;rotatable=0;points=[[0,0.5],[1,0.5]];portConstraint=eastwest;whiteSpace=wrap;html=1;" parent="Iz8ZcozuDJfdI1wzoyT7-92" vertex="1">
          <mxGeometry y="52" width="140" height="26" as="geometry" />
        </mxCell>
        <mxCell id="Iz8ZcozuDJfdI1wzoyT7-95" value="-commentaire: String" style="text;strokeColor=none;fillColor=none;align=left;verticalAlign=top;spacingLeft=4;spacingRight=4;overflow=hidden;rotatable=0;points=[[0,0.5],[1,0.5]];portConstraint=eastwest;whiteSpace=wrap;html=1;" parent="Iz8ZcozuDJfdI1wzoyT7-92" vertex="1">
          <mxGeometry y="78" width="140" height="26" as="geometry" />
        </mxCell>
        <mxCell id="Iz8ZcozuDJfdI1wzoyT7-96" value="dateAvis: Date" style="text;strokeColor=none;fillColor=none;align=left;verticalAlign=top;spacingLeft=4;spacingRight=4;overflow=hidden;rotatable=0;points=[[0,0.5],[1,0.5]];portConstraint=eastwest;whiteSpace=wrap;html=1;" parent="Iz8ZcozuDJfdI1wzoyT7-92" vertex="1">
          <mxGeometry y="104" width="140" height="26" as="geometry" />
        </mxCell>
        <mxCell id="Iz8ZcozuDJfdI1wzoyT7-98" value="" style="line;strokeWidth=1;fillColor=none;align=left;verticalAlign=middle;spacingTop=-1;spacingLeft=3;spacingRight=3;rotatable=0;labelPosition=right;points=[];portConstraint=eastwest;strokeColor=inherit;" parent="Iz8ZcozuDJfdI1wzoyT7-92" vertex="1">
          <mxGeometry y="130" width="140" height="8" as="geometry" />
        </mxCell>
        <mxCell id="Iz8ZcozuDJfdI1wzoyT7-97" value="+ publier()" style="text;strokeColor=none;fillColor=none;align=left;verticalAlign=top;spacingLeft=4;spacingRight=4;overflow=hidden;rotatable=0;points=[[0,0.5],[1,0.5]];portConstraint=eastwest;whiteSpace=wrap;html=1;" parent="Iz8ZcozuDJfdI1wzoyT7-92" vertex="1">
          <mxGeometry y="138" width="140" height="26" as="geometry" />
        </mxCell>
        <mxCell id="Iz8ZcozuDJfdI1wzoyT7-99" value="+ moderer()" style="text;strokeColor=none;fillColor=none;align=left;verticalAlign=top;spacingLeft=4;spacingRight=4;overflow=hidden;rotatable=0;points=[[0,0.5],[1,0.5]];portConstraint=eastwest;whiteSpace=wrap;html=1;" parent="Iz8ZcozuDJfdI1wzoyT7-92" vertex="1">
          <mxGeometry y="164" width="140" height="26" as="geometry" />
        </mxCell>
        <mxCell id="Iz8ZcozuDJfdI1wzoyT7-100" value="Produit" style="swimlane;fontStyle=0;childLayout=stackLayout;horizontal=1;startSize=26;fillColor=none;horizontalStack=0;resizeParent=1;resizeParentMax=0;resizeLast=0;collapsible=1;marginBottom=0;whiteSpace=wrap;html=1;" parent="1" vertex="1">
          <mxGeometry x="-70" y="1120" width="140" height="294" as="geometry" />
        </mxCell>
        <mxCell id="Iz8ZcozuDJfdI1wzoyT7-101" value="-id: int" style="text;strokeColor=none;fillColor=none;align=left;verticalAlign=top;spacingLeft=4;spacingRight=4;overflow=hidden;rotatable=0;points=[[0,0.5],[1,0.5]];portConstraint=eastwest;whiteSpace=wrap;html=1;" parent="Iz8ZcozuDJfdI1wzoyT7-100" vertex="1">
          <mxGeometry y="26" width="140" height="26" as="geometry" />
        </mxCell>
        <mxCell id="Iz8ZcozuDJfdI1wzoyT7-102" value="-nom: String" style="text;strokeColor=none;fillColor=none;align=left;verticalAlign=top;spacingLeft=4;spacingRight=4;overflow=hidden;rotatable=0;points=[[0,0.5],[1,0.5]];portConstraint=eastwest;whiteSpace=wrap;html=1;" parent="Iz8ZcozuDJfdI1wzoyT7-100" vertex="1">
          <mxGeometry y="52" width="140" height="26" as="geometry" />
        </mxCell>
        <mxCell id="Iz8ZcozuDJfdI1wzoyT7-103" value="-description: String" style="text;strokeColor=none;fillColor=none;align=left;verticalAlign=top;spacingLeft=4;spacingRight=4;overflow=hidden;rotatable=0;points=[[0,0.5],[1,0.5]];portConstraint=eastwest;whiteSpace=wrap;html=1;" parent="Iz8ZcozuDJfdI1wzoyT7-100" vertex="1">
          <mxGeometry y="78" width="140" height="26" as="geometry" />
        </mxCell>
        <mxCell id="Iz8ZcozuDJfdI1wzoyT7-104" value="-prix: float" style="text;strokeColor=none;fillColor=none;align=left;verticalAlign=top;spacingLeft=4;spacingRight=4;overflow=hidden;rotatable=0;points=[[0,0.5],[1,0.5]];portConstraint=eastwest;whiteSpace=wrap;html=1;" parent="Iz8ZcozuDJfdI1wzoyT7-100" vertex="1">
          <mxGeometry y="104" width="140" height="26" as="geometry" />
        </mxCell>
        <mxCell id="Iz8ZcozuDJfdI1wzoyT7-105" value="quantiteStock: int" style="text;strokeColor=none;fillColor=none;align=left;verticalAlign=top;spacingLeft=4;spacingRight=4;overflow=hidden;rotatable=0;points=[[0,0.5],[1,0.5]];portConstraint=eastwest;whiteSpace=wrap;html=1;" parent="Iz8ZcozuDJfdI1wzoyT7-100" vertex="1">
          <mxGeometry y="130" width="140" height="26" as="geometry" />
        </mxCell>
        <mxCell id="Iz8ZcozuDJfdI1wzoyT7-106" value="-dateAjout: Date" style="text;strokeColor=none;fillColor=none;align=left;verticalAlign=top;spacingLeft=4;spacingRight=4;overflow=hidden;rotatable=0;points=[[0,0.5],[1,0.5]];portConstraint=eastwest;whiteSpace=wrap;html=1;" parent="Iz8ZcozuDJfdI1wzoyT7-100" vertex="1">
          <mxGeometry y="156" width="140" height="26" as="geometry" />
        </mxCell>
        <mxCell id="Iz8ZcozuDJfdI1wzoyT7-107" value="-actif: boolean" style="text;strokeColor=none;fillColor=none;align=left;verticalAlign=top;spacingLeft=4;spacingRight=4;overflow=hidden;rotatable=0;points=[[0,0.5],[1,0.5]];portConstraint=eastwest;whiteSpace=wrap;html=1;" parent="Iz8ZcozuDJfdI1wzoyT7-100" vertex="1">
          <mxGeometry y="182" width="140" height="26" as="geometry" />
        </mxCell>
        <mxCell id="Iz8ZcozuDJfdI1wzoyT7-108" value="" style="line;strokeWidth=1;fillColor=none;align=left;verticalAlign=middle;spacingTop=-1;spacingLeft=3;spacingRight=3;rotatable=0;labelPosition=right;points=[];portConstraint=eastwest;strokeColor=inherit;" parent="Iz8ZcozuDJfdI1wzoyT7-100" vertex="1">
          <mxGeometry y="208" width="140" height="8" as="geometry" />
        </mxCell>
        <mxCell id="Iz8ZcozuDJfdI1wzoyT7-109" value="+mettreAjour()" style="text;strokeColor=none;fillColor=none;align=left;verticalAlign=top;spacingLeft=4;spacingRight=4;overflow=hidden;rotatable=0;points=[[0,0.5],[1,0.5]];portConstraint=eastwest;whiteSpace=wrap;html=1;" parent="Iz8ZcozuDJfdI1wzoyT7-100" vertex="1">
          <mxGeometry y="216" width="140" height="26" as="geometry" />
        </mxCell>
        <mxCell id="Iz8ZcozuDJfdI1wzoyT7-110" value="+verifierDisponible()" style="text;strokeColor=none;fillColor=none;align=left;verticalAlign=top;spacingLeft=4;spacingRight=4;overflow=hidden;rotatable=0;points=[[0,0.5],[1,0.5]];portConstraint=eastwest;whiteSpace=wrap;html=1;" parent="Iz8ZcozuDJfdI1wzoyT7-100" vertex="1">
          <mxGeometry y="242" width="140" height="26" as="geometry" />
        </mxCell>
        <mxCell id="Iz8ZcozuDJfdI1wzoyT7-111" value="+ajouterImage()" style="text;strokeColor=none;fillColor=none;align=left;verticalAlign=top;spacingLeft=4;spacingRight=4;overflow=hidden;rotatable=0;points=[[0,0.5],[1,0.5]];portConstraint=eastwest;whiteSpace=wrap;html=1;" parent="Iz8ZcozuDJfdI1wzoyT7-100" vertex="1">
          <mxGeometry y="268" width="140" height="26" as="geometry" />
        </mxCell>
        <mxCell id="Iz8ZcozuDJfdI1wzoyT7-112" value="" style="endArrow=block;endSize=16;endFill=0;html=1;rounded=0;exitX=-0.022;exitY=-0.053;exitDx=0;exitDy=0;exitPerimeter=0;entryX=1;entryY=0.5;entryDx=0;entryDy=0;" parent="1" source="Iz8ZcozuDJfdI1wzoyT7-28" target="Iz8ZcozuDJfdI1wzoyT7-14" edge="1">
          <mxGeometry width="160" relative="1" as="geometry">
            <mxPoint x="200" y="300" as="sourcePoint" />
            <mxPoint x="230" y="300" as="targetPoint" />
            <Array as="points">
              <mxPoint x="290" y="300" />
            </Array>
          </mxGeometry>
        </mxCell>
        <mxCell id="Iz8ZcozuDJfdI1wzoyT7-114" value="" style="endArrow=block;endSize=16;endFill=0;html=1;rounded=0;entryX=0;entryY=0.5;entryDx=0;entryDy=0;exitX=1.032;exitY=0.16;exitDx=0;exitDy=0;exitPerimeter=0;" parent="1" source="Iz8ZcozuDJfdI1wzoyT7-20" target="Iz8ZcozuDJfdI1wzoyT7-9" edge="1">
          <mxGeometry width="160" relative="1" as="geometry">
            <mxPoint x="-220" y="70" as="sourcePoint" />
            <mxPoint x="-100" y="150" as="targetPoint" />
          </mxGeometry>
        </mxCell>
        <mxCell id="Iz8ZcozuDJfdI1wzoyT7-115" value="" style="endArrow=block;endSize=16;endFill=0;html=1;rounded=0;entryX=0;entryY=0.5;entryDx=0;entryDy=0;exitX=1;exitY=0.5;exitDx=0;exitDy=0;" parent="1" source="Iz8ZcozuDJfdI1wzoyT7-39" target="Iz8ZcozuDJfdI1wzoyT7-17" edge="1">
          <mxGeometry width="160" relative="1" as="geometry">
            <mxPoint x="-410" y="680" as="sourcePoint" />
            <mxPoint x="-50" y="600" as="targetPoint" />
          </mxGeometry>
        </mxCell>
        <mxCell id="Iz8ZcozuDJfdI1wzoyT7-116" value="" style="endArrow=none;html=1;edgeStyle=orthogonalEdgeStyle;rounded=0;entryX=0;entryY=0.5;entryDx=0;entryDy=0;" parent="1" target="Iz8ZcozuDJfdI1wzoyT7-105" edge="1" source="Iz8ZcozuDJfdI1wzoyT7-46">
          <mxGeometry relative="1" as="geometry">
            <mxPoint x="-500" y="770" as="sourcePoint" />
            <mxPoint x="-240" y="1323" as="targetPoint" />
            <Array as="points">
              <mxPoint x="-498" y="890" />
              <mxPoint x="-500" y="890" />
              <mxPoint x="-500" y="1074" />
              <mxPoint x="-480" y="1074" />
              <mxPoint x="-480" y="1210" />
              <mxPoint x="-410" y="1210" />
              <mxPoint x="-410" y="1310" />
              <mxPoint x="-250" y="1310" />
              <mxPoint x="-250" y="1263" />
            </Array>
          </mxGeometry>
        </mxCell>
        <mxCell id="Iz8ZcozuDJfdI1wzoyT7-119" value="+ propose" style="edgeLabel;html=1;align=center;verticalAlign=middle;resizable=0;points=[];" parent="Iz8ZcozuDJfdI1wzoyT7-116" vertex="1" connectable="0">
          <mxGeometry x="-0.235" y="-4" relative="1" as="geometry">
            <mxPoint as="offset" />
          </mxGeometry>
        </mxCell>
        <mxCell id="Iz8ZcozuDJfdI1wzoyT7-120" value="1" style="edgeLabel;html=1;align=center;verticalAlign=middle;resizable=0;points=[];" parent="Iz8ZcozuDJfdI1wzoyT7-116" vertex="1" connectable="0">
          <mxGeometry x="-0.9233" y="1" relative="1" as="geometry">
            <mxPoint y="1" as="offset" />
          </mxGeometry>
        </mxCell>
        <mxCell id="Iz8ZcozuDJfdI1wzoyT7-124" value="*" style="edgeLabel;html=1;align=center;verticalAlign=middle;resizable=0;points=[];" parent="Iz8ZcozuDJfdI1wzoyT7-116" vertex="1" connectable="0">
          <mxGeometry x="0.875" y="-1" relative="1" as="geometry">
            <mxPoint as="offset" />
          </mxGeometry>
        </mxCell>
        <mxCell id="Iz8ZcozuDJfdI1wzoyT7-121" value="" style="endArrow=none;html=1;edgeStyle=orthogonalEdgeStyle;rounded=0;entryX=0.545;entryY=1.19;entryDx=0;entryDy=0;entryPerimeter=0;exitX=0;exitY=0.5;exitDx=0;exitDy=0;" parent="1" source="Iz8ZcozuDJfdI1wzoyT7-101" target="Iz8ZcozuDJfdI1wzoyT7-72" edge="1">
          <mxGeometry relative="1" as="geometry">
            <mxPoint x="-100" y="1220" as="sourcePoint" />
            <mxPoint x="-20" y="1052.8571428571422" as="targetPoint" />
            <Array as="points">
              <mxPoint x="-160" y="1219" />
              <mxPoint x="-160" y="1053" />
              <mxPoint x="-294" y="1053" />
            </Array>
          </mxGeometry>
        </mxCell>
        <mxCell id="Iz8ZcozuDJfdI1wzoyT7-125" value="*" style="edgeLabel;html=1;align=center;verticalAlign=middle;resizable=0;points=[];" parent="Iz8ZcozuDJfdI1wzoyT7-121" vertex="1" connectable="0">
          <mxGeometry x="-0.8149" y="2" relative="1" as="geometry">
            <mxPoint as="offset" />
          </mxGeometry>
        </mxCell>
        <mxCell id="Iz8ZcozuDJfdI1wzoyT7-126" value="+contient" style="edgeLabel;html=1;align=center;verticalAlign=middle;resizable=0;points=[];" parent="Iz8ZcozuDJfdI1wzoyT7-121" vertex="1" connectable="0">
          <mxGeometry x="0.1" y="-3" relative="1" as="geometry">
            <mxPoint as="offset" />
          </mxGeometry>
        </mxCell>
        <mxCell id="Iz8ZcozuDJfdI1wzoyT7-127" value="1" style="edgeLabel;html=1;align=center;verticalAlign=middle;resizable=0;points=[];" parent="Iz8ZcozuDJfdI1wzoyT7-121" vertex="1" connectable="0">
          <mxGeometry x="0.8504" y="-1" relative="1" as="geometry">
            <mxPoint as="offset" />
          </mxGeometry>
        </mxCell>
        <mxCell id="Iz8ZcozuDJfdI1wzoyT7-128" value="" style="endArrow=none;html=1;edgeStyle=orthogonalEdgeStyle;rounded=0;entryX=0.76;entryY=0.738;entryDx=0;entryDy=0;entryPerimeter=0;exitX=1;exitY=0.5;exitDx=0;exitDy=0;" parent="1" source="Iz8ZcozuDJfdI1wzoyT7-102" target="Iz8ZcozuDJfdI1wzoyT7-77" edge="1">
          <mxGeometry relative="1" as="geometry">
            <mxPoint x="120" y="1250" as="sourcePoint" />
            <mxPoint x="110" y="910" as="targetPoint" />
            <Array as="points">
              <mxPoint x="70" y="1250" />
              <mxPoint x="121" y="1250" />
              <mxPoint x="121" y="1074" />
              <mxPoint x="150" y="1074" />
              <mxPoint x="150" y="896" />
            </Array>
          </mxGeometry>
        </mxCell>
        <mxCell id="Iz8ZcozuDJfdI1wzoyT7-137" value="*" style="edgeLabel;html=1;align=center;verticalAlign=middle;resizable=0;points=[];" parent="Iz8ZcozuDJfdI1wzoyT7-128" vertex="1" connectable="0">
          <mxGeometry x="0.6495" y="-3" relative="1" as="geometry">
            <mxPoint as="offset" />
          </mxGeometry>
        </mxCell>
        <mxCell id="Iz8ZcozuDJfdI1wzoyT7-138" value="+référence" style="edgeLabel;html=1;align=center;verticalAlign=middle;resizable=0;points=[];" parent="Iz8ZcozuDJfdI1wzoyT7-128" vertex="1" connectable="0">
          <mxGeometry x="0.105" relative="1" as="geometry">
            <mxPoint as="offset" />
          </mxGeometry>
        </mxCell>
        <mxCell id="Iz8ZcozuDJfdI1wzoyT7-139" value="1" style="edgeLabel;html=1;align=center;verticalAlign=middle;resizable=0;points=[];" parent="Iz8ZcozuDJfdI1wzoyT7-128" vertex="1" connectable="0">
          <mxGeometry x="-0.7893" y="2" relative="1" as="geometry">
            <mxPoint x="-1" as="offset" />
          </mxGeometry>
        </mxCell>
        <mxCell id="Iz8ZcozuDJfdI1wzoyT7-154" value="" style="endArrow=none;html=1;edgeStyle=orthogonalEdgeStyle;rounded=0;exitX=1;exitY=0.5;exitDx=0;exitDy=0;entryX=1;entryY=0.5;entryDx=0;entryDy=0;" parent="1" source="Iz8ZcozuDJfdI1wzoyT7-105" target="Iz8ZcozuDJfdI1wzoyT7-90" edge="1">
          <mxGeometry relative="1" as="geometry">
            <mxPoint x="200" y="1300" as="sourcePoint" />
            <mxPoint x="640" y="1020" as="targetPoint" />
            <Array as="points">
              <mxPoint x="70" y="1300" />
              <mxPoint x="280" y="1300" />
              <mxPoint x="280" y="1240" />
              <mxPoint x="319" y="1240" />
              <mxPoint x="319" y="1230" />
              <mxPoint x="340" y="1230" />
              <mxPoint x="340" y="877" />
            </Array>
          </mxGeometry>
        </mxCell>
        <mxCell id="Iz8ZcozuDJfdI1wzoyT7-156" value="child" style="edgeLabel;resizable=0;html=1;align=right;verticalAlign=bottom;" parent="Iz8ZcozuDJfdI1wzoyT7-154" connectable="0" vertex="1">
          <mxGeometry x="1" relative="1" as="geometry" />
        </mxCell>
        <mxCell id="Iz8ZcozuDJfdI1wzoyT7-158" value="*" style="edgeLabel;html=1;align=center;verticalAlign=middle;resizable=0;points=[];" parent="Iz8ZcozuDJfdI1wzoyT7-154" vertex="1" connectable="0">
          <mxGeometry x="0.8088" y="-4" relative="1" as="geometry">
            <mxPoint as="offset" />
          </mxGeometry>
        </mxCell>
        <mxCell id="Iz8ZcozuDJfdI1wzoyT7-159" value="1" style="edgeLabel;html=1;align=center;verticalAlign=middle;resizable=0;points=[];" parent="Iz8ZcozuDJfdI1wzoyT7-154" vertex="1" connectable="0">
          <mxGeometry x="-0.7575" y="-3" relative="1" as="geometry">
            <mxPoint as="offset" />
          </mxGeometry>
        </mxCell>
        <mxCell id="Iz8ZcozuDJfdI1wzoyT7-160" value="+possède" style="edgeLabel;html=1;align=center;verticalAlign=middle;resizable=0;points=[];" parent="Iz8ZcozuDJfdI1wzoyT7-154" vertex="1" connectable="0">
          <mxGeometry x="0.2234" y="-1" relative="1" as="geometry">
            <mxPoint as="offset" />
          </mxGeometry>
        </mxCell>
        <mxCell id="Iz8ZcozuDJfdI1wzoyT7-164" value="" style="endArrow=none;html=1;edgeStyle=orthogonalEdgeStyle;rounded=0;entryX=0;entryY=0.5;entryDx=0;entryDy=0;exitX=1;exitY=0.5;exitDx=0;exitDy=0;" parent="1" edge="1">
          <mxGeometry relative="1" as="geometry">
            <mxPoint x="70" y="1345" as="sourcePoint" />
            <mxPoint x="687" y="859.9999999999998" as="targetPoint" />
            <Array as="points">
              <mxPoint x="70" y="1320" />
              <mxPoint x="670" y="1320" />
              <mxPoint x="670" y="860" />
            </Array>
          </mxGeometry>
        </mxCell>
        <mxCell id="Iz8ZcozuDJfdI1wzoyT7-168" value="1" style="edgeLabel;html=1;align=center;verticalAlign=middle;resizable=0;points=[];" parent="Iz8ZcozuDJfdI1wzoyT7-164" vertex="1" connectable="0">
          <mxGeometry x="-0.8867" relative="1" as="geometry">
            <mxPoint x="1" as="offset" />
          </mxGeometry>
        </mxCell>
        <mxCell id="Iz8ZcozuDJfdI1wzoyT7-169" value="*" style="edgeLabel;html=1;align=center;verticalAlign=middle;resizable=0;points=[];" parent="Iz8ZcozuDJfdI1wzoyT7-164" vertex="1" connectable="0">
          <mxGeometry x="0.8385" y="-2" relative="1" as="geometry">
            <mxPoint as="offset" />
          </mxGeometry>
        </mxCell>
        <mxCell id="Iz8ZcozuDJfdI1wzoyT7-170" value="+recoit" style="edgeLabel;html=1;align=center;verticalAlign=middle;resizable=0;points=[];" parent="Iz8ZcozuDJfdI1wzoyT7-164" vertex="1" connectable="0">
          <mxGeometry x="0.1912" y="1" relative="1" as="geometry">
            <mxPoint as="offset" />
          </mxGeometry>
        </mxCell>
        <mxCell id="Iz8ZcozuDJfdI1wzoyT7-171" value="" style="endArrow=none;html=1;edgeStyle=orthogonalEdgeStyle;rounded=0;entryX=0.25;entryY=0;entryDx=0;entryDy=0;exitX=0.005;exitY=-0.148;exitDx=0;exitDy=0;exitPerimeter=0;" parent="1" source="Iz8ZcozuDJfdI1wzoyT7-62" target="Iz8ZcozuDJfdI1wzoyT7-78" edge="1">
          <mxGeometry relative="1" as="geometry">
            <mxPoint x="448" y="560" as="sourcePoint" />
            <mxPoint x="320" y="670" as="targetPoint" />
            <Array as="points">
              <mxPoint x="481" y="560" />
              <mxPoint x="410" y="560" />
              <mxPoint x="410" y="672" />
              <mxPoint x="448" y="672" />
            </Array>
          </mxGeometry>
        </mxCell>
        <mxCell id="Iz8ZcozuDJfdI1wzoyT7-174" value="+a" style="edgeLabel;html=1;align=center;verticalAlign=middle;resizable=0;points=[];" parent="Iz8ZcozuDJfdI1wzoyT7-171" vertex="1" connectable="0">
          <mxGeometry x="-0.1174" y="-3" relative="1" as="geometry">
            <mxPoint y="-1" as="offset" />
          </mxGeometry>
        </mxCell>
        <mxCell id="Iz8ZcozuDJfdI1wzoyT7-175" value="1" style="edgeLabel;html=1;align=center;verticalAlign=middle;resizable=0;points=[];" parent="Iz8ZcozuDJfdI1wzoyT7-171" vertex="1" connectable="0">
          <mxGeometry x="-0.8069" relative="1" as="geometry">
            <mxPoint x="1" as="offset" />
          </mxGeometry>
        </mxCell>
        <mxCell id="Iz8ZcozuDJfdI1wzoyT7-176" value="*" style="edgeLabel;html=1;align=center;verticalAlign=middle;resizable=0;points=[];" parent="Iz8ZcozuDJfdI1wzoyT7-171" vertex="1" connectable="0">
          <mxGeometry x="0.8829" relative="1" as="geometry">
            <mxPoint as="offset" />
          </mxGeometry>
        </mxCell>
        <mxCell id="Iz8ZcozuDJfdI1wzoyT7-177" value="" style="endArrow=none;html=1;edgeStyle=orthogonalEdgeStyle;rounded=0;exitX=0.66;exitY=-0.019;exitDx=0;exitDy=0;exitPerimeter=0;" parent="1" target="Iz8ZcozuDJfdI1wzoyT7-59" edge="1">
          <mxGeometry relative="1" as="geometry">
            <mxPoint x="72.40000000000009" y="773.8720000000001" as="sourcePoint" />
            <mxPoint x="300" y="490" as="targetPoint" />
            <Array as="points">
              <mxPoint x="72" y="790" />
              <mxPoint x="70" y="790" />
              <mxPoint x="70" y="740" />
              <mxPoint x="330" y="740" />
              <mxPoint x="330" y="495" />
            </Array>
          </mxGeometry>
        </mxCell>
        <mxCell id="Iz8ZcozuDJfdI1wzoyT7-180" value="+contient" style="edgeLabel;html=1;align=center;verticalAlign=middle;resizable=0;points=[];" parent="Iz8ZcozuDJfdI1wzoyT7-177" vertex="1" connectable="0">
          <mxGeometry x="0.0425" y="-2" relative="1" as="geometry">
            <mxPoint as="offset" />
          </mxGeometry>
        </mxCell>
        <mxCell id="Iz8ZcozuDJfdI1wzoyT7-181" value="*" style="edgeLabel;html=1;align=center;verticalAlign=middle;resizable=0;points=[];" parent="Iz8ZcozuDJfdI1wzoyT7-177" vertex="1" connectable="0">
          <mxGeometry x="-0.8493" y="2" relative="1" as="geometry">
            <mxPoint y="-1" as="offset" />
          </mxGeometry>
        </mxCell>
        <mxCell id="Iz8ZcozuDJfdI1wzoyT7-182" value="1" style="edgeLabel;html=1;align=center;verticalAlign=middle;resizable=0;points=[];" parent="Iz8ZcozuDJfdI1wzoyT7-177" vertex="1" connectable="0">
          <mxGeometry x="0.8572" y="-1" relative="1" as="geometry">
            <mxPoint as="offset" />
          </mxGeometry>
        </mxCell>
        <mxCell id="Iz8ZcozuDJfdI1wzoyT7-183" value="" style="endArrow=none;html=1;edgeStyle=orthogonalEdgeStyle;rounded=0;exitX=1;exitY=0.5;exitDx=0;exitDy=0;entryX=0;entryY=0;entryDx=0;entryDy=0;" parent="1" source="Iz8ZcozuDJfdI1wzoyT7-32" target="Iz8ZcozuDJfdI1wzoyT7-92" edge="1">
          <mxGeometry relative="1" as="geometry">
            <mxPoint x="580" y="280" as="sourcePoint" />
            <mxPoint x="740" y="280" as="targetPoint" />
            <Array as="points">
              <mxPoint x="650" y="283" />
              <mxPoint x="650" y="280" />
              <mxPoint x="740" y="280" />
              <mxPoint x="740" y="739" />
            </Array>
          </mxGeometry>
        </mxCell>
        <mxCell id="Iz8ZcozuDJfdI1wzoyT7-186" value="1" style="edgeLabel;html=1;align=center;verticalAlign=middle;resizable=0;points=[];" parent="Iz8ZcozuDJfdI1wzoyT7-183" vertex="1" connectable="0">
          <mxGeometry x="-0.8379" y="-1" relative="1" as="geometry">
            <mxPoint as="offset" />
          </mxGeometry>
        </mxCell>
        <mxCell id="Iz8ZcozuDJfdI1wzoyT7-187" value="*" style="edgeLabel;html=1;align=center;verticalAlign=middle;resizable=0;points=[];" parent="Iz8ZcozuDJfdI1wzoyT7-183" vertex="1" connectable="0">
          <mxGeometry x="0.7122" y="4" relative="1" as="geometry">
            <mxPoint y="1" as="offset" />
          </mxGeometry>
        </mxCell>
        <mxCell id="Iz8ZcozuDJfdI1wzoyT7-188" value="+donne" style="edgeLabel;html=1;align=center;verticalAlign=middle;resizable=0;points=[];" parent="Iz8ZcozuDJfdI1wzoyT7-183" vertex="1" connectable="0">
          <mxGeometry x="-0.105" y="-2" relative="1" as="geometry">
            <mxPoint y="-1" as="offset" />
          </mxGeometry>
        </mxCell>
        <mxCell id="Iz8ZcozuDJfdI1wzoyT7-192" value="" style="endArrow=none;html=1;edgeStyle=orthogonalEdgeStyle;rounded=0;exitX=1;exitY=0.5;exitDx=0;exitDy=0;" parent="1" source="Iz8ZcozuDJfdI1wzoyT7-48" target="Iz8ZcozuDJfdI1wzoyT7-34" edge="1">
          <mxGeometry relative="1" as="geometry">
            <mxPoint x="50" y="450" as="sourcePoint" />
            <mxPoint x="310" y="420" as="targetPoint" />
          </mxGeometry>
        </mxCell>
        <mxCell id="Iz8ZcozuDJfdI1wzoyT7-195" value="1" style="edgeLabel;html=1;align=center;verticalAlign=middle;resizable=0;points=[];" parent="Iz8ZcozuDJfdI1wzoyT7-192" vertex="1" connectable="0">
          <mxGeometry x="-0.7113" y="1" relative="1" as="geometry">
            <mxPoint as="offset" />
          </mxGeometry>
        </mxCell>
        <mxCell id="Iz8ZcozuDJfdI1wzoyT7-196" value="1" style="edgeLabel;html=1;align=center;verticalAlign=middle;resizable=0;points=[];" parent="Iz8ZcozuDJfdI1wzoyT7-192" vertex="1" connectable="0">
          <mxGeometry x="0.7624" y="-5" relative="1" as="geometry">
            <mxPoint as="offset" />
          </mxGeometry>
        </mxCell>
        <mxCell id="Iz8ZcozuDJfdI1wzoyT7-197" value="+possède" style="edgeLabel;html=1;align=center;verticalAlign=middle;resizable=0;points=[];" parent="Iz8ZcozuDJfdI1wzoyT7-192" vertex="1" connectable="0">
          <mxGeometry x="0.0048" y="1" relative="1" as="geometry">
            <mxPoint as="offset" />
          </mxGeometry>
        </mxCell>
        <mxCell id="Iz8ZcozuDJfdI1wzoyT7-201" value="" style="endArrow=none;html=1;edgeStyle=orthogonalEdgeStyle;rounded=0;exitX=0;exitY=0.5;exitDx=0;exitDy=0;entryX=0.25;entryY=0;entryDx=0;entryDy=0;" parent="1" target="Iz8ZcozuDJfdI1wzoyT7-100" edge="1">
          <mxGeometry relative="1" as="geometry">
            <mxPoint x="-30.000000000000455" y="650.0000000000002" as="sourcePoint" />
            <mxPoint x="-30" y="1170" as="targetPoint" />
            <Array as="points">
              <mxPoint x="-90" y="650" />
              <mxPoint x="-90" y="920" />
              <mxPoint x="-34" y="920" />
              <mxPoint x="-34" y="1180" />
            </Array>
          </mxGeometry>
        </mxCell>
        <mxCell id="Iz8ZcozuDJfdI1wzoyT7-204" value="+contient" style="edgeLabel;html=1;align=center;verticalAlign=middle;resizable=0;points=[];" parent="Iz8ZcozuDJfdI1wzoyT7-201" vertex="1" connectable="0">
          <mxGeometry x="-0.1428" y="6" relative="1" as="geometry">
            <mxPoint x="-1" y="1" as="offset" />
          </mxGeometry>
        </mxCell>
        <mxCell id="Iz8ZcozuDJfdI1wzoyT7-205" value="*" style="edgeLabel;html=1;align=center;verticalAlign=middle;resizable=0;points=[];" parent="Iz8ZcozuDJfdI1wzoyT7-201" vertex="1" connectable="0">
          <mxGeometry x="0.8054" relative="1" as="geometry">
            <mxPoint x="-1" as="offset" />
          </mxGeometry>
        </mxCell>
        <mxCell id="Iz8ZcozuDJfdI1wzoyT7-207" value="1" style="edgeLabel;html=1;align=center;verticalAlign=middle;resizable=0;points=[];" parent="Iz8ZcozuDJfdI1wzoyT7-201" vertex="1" connectable="0">
          <mxGeometry x="-0.8479" y="4" relative="1" as="geometry">
            <mxPoint as="offset" />
          </mxGeometry>
        </mxCell>
        <mxCell id="Iz8ZcozuDJfdI1wzoyT7-208" value="" style="endArrow=none;html=1;edgeStyle=orthogonalEdgeStyle;rounded=0;entryX=0.75;entryY=0;entryDx=0;entryDy=0;" parent="1" target="Iz8ZcozuDJfdI1wzoyT7-57" edge="1">
          <mxGeometry relative="1" as="geometry">
            <mxPoint x="566" y="323" as="sourcePoint" />
            <mxPoint x="580" y="400" as="targetPoint" />
            <Array as="points">
              <mxPoint x="593" y="323" />
            </Array>
          </mxGeometry>
        </mxCell>
        <mxCell id="Iz8ZcozuDJfdI1wzoyT7-211" value="+passe" style="edgeLabel;html=1;align=center;verticalAlign=middle;resizable=0;points=[];" parent="Iz8ZcozuDJfdI1wzoyT7-208" vertex="1" connectable="0">
          <mxGeometry x="0.2593" relative="1" as="geometry">
            <mxPoint y="1" as="offset" />
          </mxGeometry>
        </mxCell>
        <mxCell id="Iz8ZcozuDJfdI1wzoyT7-212" value="1" style="edgeLabel;html=1;align=center;verticalAlign=middle;resizable=0;points=[];" parent="Iz8ZcozuDJfdI1wzoyT7-208" vertex="1" connectable="0">
          <mxGeometry x="-0.5148" y="-5" relative="1" as="geometry">
            <mxPoint y="1" as="offset" />
          </mxGeometry>
        </mxCell>
        <mxCell id="Iz8ZcozuDJfdI1wzoyT7-213" value="*" style="edgeLabel;html=1;align=center;verticalAlign=middle;resizable=0;points=[];" parent="Iz8ZcozuDJfdI1wzoyT7-208" vertex="1" connectable="0">
          <mxGeometry x="0.7087" y="-2" relative="1" as="geometry">
            <mxPoint y="1" as="offset" />
          </mxGeometry>
        </mxCell>
      </root>
    </mxGraphModel>
  </diagram>
</mxfile>
